<?xml version="1.0" encoding="utf-8"?>
<!-- Generator: Adobe Illustrator 24.2.0, SVG Export Plug-In . SVG Version: 6.00 Build 0)  -->
<svg version="1.1" id="Layer_1" xmlns="http://www.w3.org/2000/svg" xmlns:xlink="http://www.w3.org/1999/xlink" x="0px" y="0px"
	 viewBox="0 0 107.2 45.4" style="enable-background:new 0 0 107.2 45.4;" xml:space="preserve">
<style type="text/css">
	.st0{fill:#6D1761;stroke:#EFA699;stroke-width:2;stroke-linejoin:round;stroke-miterlimit:10;}
	.st1{fill:#F0A698;stroke:#EFA699;stroke-linejoin:round;stroke-miterlimit:10;}
	.st2{fill:#6D1761;stroke:#EB755C;stroke-width:2;stroke-linejoin:round;stroke-miterlimit:10;}
</style>
<polygon class="st0" points="35.7,38.5 3.8,38.5 3.8,6.7 35.7,6.7 19.4,22.3 "/>
<g>
	<path class="st1" d="M63.7,38.3l16.5-14.7c4-3.6,6-5.5,6-9c0-5.6-5.6-7.1-9.5-7.1c-4.7,0-8.6,1.5-11.7,3.2V9.4
		c3.2-1.8,7.6-3.2,11.7-3.2c6.2,0,10.8,2.7,10.8,8.2c0,4.1-2.4,6.4-6.5,10L65.7,38h24.8V39H63.7V38.3z"/>
	<path class="st1" d="M104.5,7.8l-12.1,5.5v-1l12.2-5.6l0,0h1.1v32.4h-1.1L104.5,7.8L104.5,7.8z"/>
</g>
<g>
	<path class="st2" d="M30.2,3.8h12v16.1L60.1,3.8H74L55.5,20.9l19.9,20.7H60.7L47.6,28l-5.4,5v8.6h-12C30.2,41.6,30.2,3.8,30.2,3.8z
		"/>
</g>
</svg>
